<svg id="visual" viewBox="0 0 900 250" width="900" height="250" xmlns="http://www.w3.org/2000/svg" xmlns:xlink="http://www.w3.org/1999/xlink" version="1.1"><path d="M0 82L12.5 77.7C25 73.3 50 64.7 75 66.3C100 68 125 80 150 87.5C175 95 200 98 225 97.5C250 97 275 93 300 88.7C325 84.3 350 79.7 375 75.7C400 71.7 425 68.3 450 73.5C475 78.7 500 92.3 525 96.5C550 100.7 575 95.3 600 87.3C625 79.3 650 68.7 675 64.8C700 61 725 64 750 66.5C775 69 800 71 825 74.7C850 78.3 875 83.7 887.5 86.3L900 89L900 0L887.5 0C875 0 850 0 825 0C800 0 775 0 750 0C725 0 700 0 675 0C650 0 625 0 600 0C575 0 550 0 525 0C500 0 475 0 450 0C425 0 400 0 375 0C350 0 325 0 300 0C275 0 250 0 225 0C200 0 175 0 150 0C125 0 100 0 75 0C50 0 25 0 12.5 0L0 0Z" fill="#75c956"></path><path d="M0 46L12.5 44.2C25 42.3 50 38.7 75 37.7C100 36.7 125 38.3 150 41.3C175 44.3 200 48.7 225 54.7C250 60.7 275 68.3 300 67.8C325 67.3 350 58.7 375 53.5C400 48.3 425 46.7 450 51C475 55.3 500 65.7 525 69C550 72.3 575 68.7 600 67C625 65.3 650 65.7 675 60.7C700 55.7 725 45.3 750 45.5C775 45.7 800 56.3 825 58.3C850 60.3 875 53.7 887.5 50.3L900 47L900 0L887.5 0C875 0 850 0 825 0C800 0 775 0 750 0C725 0 700 0 675 0C650 0 625 0 600 0C575 0 550 0 525 0C500 0 475 0 450 0C425 0 400 0 375 0C350 0 325 0 300 0C275 0 250 0 225 0C200 0 175 0 150 0C125 0 100 0 75 0C50 0 25 0 12.5 0L0 0Z" fill="#5db43d"></path><path d="M0 47L12.5 47C25 47 50 47 75 42.8C100 38.7 125 30.3 150 29.8C175 29.3 200 36.7 225 35.7C250 34.7 275 25.3 300 23.2C325 21 350 26 375 26.8C400 27.7 425 24.3 450 21.7C475 19 500 17 525 19.2C550 21.3 575 27.7 600 32.2C625 36.7 650 39.3 675 39.3C700 39.3 725 36.7 750 32.2C775 27.7 800 21.3 825 20C850 18.7 875 22.3 887.5 24.2L900 26L900 0L887.5 0C875 0 850 0 825 0C800 0 775 0 750 0C725 0 700 0 675 0C650 0 625 0 600 0C575 0 550 0 525 0C500 0 475 0 450 0C425 0 400 0 375 0C350 0 325 0 300 0C275 0 250 0 225 0C200 0 175 0 150 0C125 0 100 0 75 0C50 0 25 0 12.5 0L0 0Z" fill="#43a021"></path></svg>