<svg id="visual" viewBox="0 0 900 250" width="900" height="250" xmlns="http://www.w3.org/2000/svg" xmlns:xlink="http://www.w3.org/1999/xlink" version="1.1"><path d="M0 166L12.5 170.3C25 174.7 50 183.3 75 181.7C100 180 125 168 150 160.5C175 153 200 150 225 150.5C250 151 275 155 300 159.3C325 163.7 350 168.3 375 172.3C400 176.3 425 179.7 450 174.5C475 169.3 500 155.7 525 151.5C550 147.3 575 152.7 600 160.7C625 168.7 650 179.3 675 183.2C700 187 725 184 750 181.5C775 179 800 177 825 173.3C850 169.7 875 164.3 887.5 161.7L900 159L900 251L887.5 251C875 251 850 251 825 251C800 251 775 251 750 251C725 251 700 251 675 251C650 251 625 251 600 251C575 251 550 251 525 251C500 251 475 251 450 251C425 251 400 251 375 251C350 251 325 251 300 251C275 251 250 251 225 251C200 251 175 251 150 251C125 251 100 251 75 251C50 251 25 251 12.5 251L0 251Z" fill="#75c956"></path><path d="M0 202L12.5 203.8C25 205.7 50 209.3 75 210.3C100 211.3 125 209.7 150 206.7C175 203.7 200 199.3 225 193.3C250 187.3 275 179.7 300 180.2C325 180.7 350 189.3 375 194.5C400 199.7 425 201.3 450 197C475 192.7 500 182.3 525 179C550 175.7 575 179.3 600 181C625 182.7 650 182.3 675 187.3C700 192.3 725 202.7 750 202.5C775 202.3 800 191.7 825 189.7C850 187.7 875 194.3 887.5 197.7L900 201L900 251L887.5 251C875 251 850 251 825 251C800 251 775 251 750 251C725 251 700 251 675 251C650 251 625 251 600 251C575 251 550 251 525 251C500 251 475 251 450 251C425 251 400 251 375 251C350 251 325 251 300 251C275 251 250 251 225 251C200 251 175 251 150 251C125 251 100 251 75 251C50 251 25 251 12.5 251L0 251Z" fill="#5db43d"></path><path d="M0 201L12.5 201C25 201 50 201 75 205.2C100 209.3 125 217.7 150 218.2C175 218.7 200 211.3 225 212.3C250 213.3 275 222.7 300 224.8C325 227 350 222 375 221.2C400 220.3 425 223.7 450 226.3C475 229 500 231 525 228.8C550 226.7 575 220.3 600 215.8C625 211.3 650 208.7 675 208.7C700 208.7 725 211.3 750 215.8C775 220.3 800 226.7 825 228C850 229.3 875 225.7 887.5 223.8L900 222L900 251L887.5 251C875 251 850 251 825 251C800 251 775 251 750 251C725 251 700 251 675 251C650 251 625 251 600 251C575 251 550 251 525 251C500 251 475 251 450 251C425 251 400 251 375 251C350 251 325 251 300 251C275 251 250 251 225 251C200 251 175 251 150 251C125 251 100 251 75 251C50 251 25 251 12.5 251L0 251Z" fill="#43a021"></path></svg>