<svg id="visual" viewBox="0 0 900 250" width="900" height="250" xmlns="http://www.w3.org/2000/svg" xmlns:xlink="http://www.w3.org/1999/xlink" version="1.1"><path d="M0 45L18.8 49.2C37.7 53.3 75.3 61.7 112.8 66.2C150.3 70.7 187.7 71.3 225.2 76.5C262.7 81.7 300.3 91.3 337.8 94.5C375.3 97.7 412.7 94.3 450.2 87.3C487.7 80.3 525.3 69.7 562.8 63.7C600.3 57.7 637.7 56.3 675.2 56.8C712.7 57.3 750.3 59.7 787.8 61.7C825.3 63.7 862.7 65.3 881.3 66.2L900 67L900 0L881.3 0C862.7 0 825.3 0 787.8 0C750.3 0 712.7 0 675.2 0C637.7 0 600.3 0 562.8 0C525.3 0 487.7 0 450.2 0C412.7 0 375.3 0 337.8 0C300.3 0 262.7 0 225.2 0C187.7 0 150.3 0 112.8 0C75.3 0 37.7 0 18.8 0L0 0Z" fill="#72fa69"></path><path d="M0 72L18.8 72.5C37.7 73 75.3 74 112.8 66.7C150.3 59.3 187.7 43.7 225.2 39.8C262.7 36 300.3 44 337.8 44.3C375.3 44.7 412.7 37.3 450.2 35.3C487.7 33.3 525.3 36.7 562.8 40.7C600.3 44.7 637.7 49.3 675.2 53.7C712.7 58 750.3 62 787.8 62.7C825.3 63.3 862.7 60.7 881.3 59.3L900 58L900 0L881.3 0C862.7 0 825.3 0 787.8 0C750.3 0 712.7 0 675.2 0C637.7 0 600.3 0 562.8 0C525.3 0 487.7 0 450.2 0C412.7 0 375.3 0 337.8 0C300.3 0 262.7 0 225.2 0C187.7 0 150.3 0 112.8 0C75.3 0 37.7 0 18.8 0L0 0Z" fill="#41b140"></path><path d="M0 19L18.8 19.3C37.7 19.7 75.3 20.3 112.8 24.7C150.3 29 187.7 37 225.2 38.5C262.7 40 300.3 35 337.8 34.8C375.3 34.7 412.7 39.3 450.2 38.5C487.7 37.7 525.3 31.3 562.8 29.5C600.3 27.7 637.7 30.3 675.2 33.8C712.7 37.3 750.3 41.7 787.8 41.7C825.3 41.7 862.7 37.3 881.3 35.2L900 33L900 0L881.3 0C862.7 0 825.3 0 787.8 0C750.3 0 712.7 0 675.2 0C637.7 0 600.3 0 562.8 0C525.3 0 487.7 0 450.2 0C412.7 0 375.3 0 337.8 0C300.3 0 262.7 0 225.2 0C187.7 0 150.3 0 112.8 0C75.3 0 37.7 0 18.8 0L0 0Z" fill="#0e6e1a"></path></svg>